<svg xmlns="http://www.w3.org/2000/svg" width="92.19" height="121.208" viewBox="0 0 92.19 121.208"><g transform="translate(1766.493 1387.178) rotate(19)"><g transform="translate(-2088.829 -750.657)"><path d="M-2072.051-733.2c0,1.541,7.975,2.79,17.814,2.79s17.814-1.249,17.814-2.79l-7.431,25.239c25.183,32.941,20.042,73.944,10.148,76.744a76.181,76.181,0,0,1-20.758,3.124h-.513a76.176,76.176,0,0,1-20.758-3.124c-9.895-2.8-15.035-43.8,10.148-76.744Z" transform="translate(2084.99 737.109)" fill="#fab9aa"/><path d="M-2036.723-557.971a1.343,1.343,0,0,1-.454-.08,1.344,1.344,0,0,1-.81-1.719,56.836,56.836,0,0,1,9.544-17.188,1.344,1.344,0,0,1,1.888-.212,1.343,1.343,0,0,1,.212,1.888,54.293,54.293,0,0,0-9.115,16.421A1.344,1.344,0,0,1-2036.723-557.971Z" transform="translate(2049.435 616.249)" fill="#fff"/><path d="M-2047.636-462.277a1.3,1.3,0,0,1-.264-.025,1.421,1.421,0,0,1-.251-.078,1.259,1.259,0,0,1-.231-.123,1.5,1.5,0,0,1-.206-.166,1.5,1.5,0,0,1-.166-.206,1.285,1.285,0,0,1-.123-.231,1.439,1.439,0,0,1-.078-.251,1.511,1.511,0,0,1-.025-.264,1.358,1.358,0,0,1,.392-.949,1.361,1.361,0,0,1,.206-.168,1.409,1.409,0,0,1,.231-.123,1.409,1.409,0,0,1,.251-.076,1.388,1.388,0,0,1,.526,0,1.4,1.4,0,0,1,.251.076,1.55,1.55,0,0,1,.233.123,1.332,1.332,0,0,1,.2.168,1.35,1.35,0,0,1,.394.949,1.329,1.329,0,0,1-.027.264,1.392,1.392,0,0,1-.076.251,1.44,1.44,0,0,1-.123.231,1.367,1.367,0,0,1-.168.206,1.464,1.464,0,0,1-.2.166,1.373,1.373,0,0,1-.233.123,1.415,1.415,0,0,1-.251.078A1.3,1.3,0,0,1-2047.636-462.277Z" transform="translate(2057.904 528.941)" fill="#fff"/><g transform="translate(31.83 3.91)"><g transform="translate(16.666)"><path d="M-1872.272-732.956a.507.507,0,0,0,.072-.243Z" transform="translate(1872.272 733.199)" fill="#f3a1a1"/></g><g transform="translate(0 0.243)"><path d="M-1937.387-707.116l7.36-25c-.687,1.244-6.582,2.254-14.254,2.492l1.273,22.919c8.52,8.929,13.977,22.639,13.977,38.016,0,17.493-7.061,32.83-17.662,41.422a77.312,77.312,0,0,0,19.454-3.109C-1917.344-633.172-1912.2-674.175-1937.387-707.116Z" transform="translate(1946.693 732.112)" fill="#f3a1a1"/></g></g><ellipse cx="17.814" cy="2.79" rx="17.814" ry="2.79" transform="translate(12.939 1.12)" fill="#f7f8f9"/><path d="M-2058.3-630.853h-.513a76.8,76.8,0,0,1-21.062-3.166c-2.753-.779-5.071-3.785-6.7-8.694-2.627-7.9-2.972-19.416-.922-30.812a91.112,91.112,0,0,1,16.859-38.562l-6.233-24.336a1.63,1.63,0,0,1-.132-.656,1.12,1.12,0,0,1,.98-1.111,1.12,1.12,0,0,1,1.221.819c.945.72,6.543,1.962,16.733,1.962s15.787-1.242,16.733-1.962l.007-.025a1.12,1.12,0,0,1,1.234-.792,1.119,1.119,0,0,1,.96,1.108,1.614,1.614,0,0,1-.169.736l-7.148,24.277a91.1,91.1,0,0,1,16.845,38.542c2.05,11.4,1.705,22.914-.922,30.812-1.633,4.909-3.951,7.915-6.7,8.694A76.8,76.8,0,0,1-2058.3-630.853Zm-15.819-103.835,5.781,22.57a1.121,1.121,0,0,1-.195.958,88.829,88.829,0,0,0-16.764,38.032c-1.987,11.044-1.672,22.15.843,29.709,1.348,4.053,3.24,6.694,5.189,7.246a74.6,74.6,0,0,0,20.453,3.081h.513a74.6,74.6,0,0,0,20.453-3.081c1.949-.552,3.84-3.193,5.189-7.246,2.515-7.559,2.83-18.665.843-29.709a88.837,88.837,0,0,0-16.764-38.032,1.12,1.12,0,0,1-.185-1l6.625-22.5a27.182,27.182,0,0,1-3.164.655,86.923,86.923,0,0,1-12.77.831,86.918,86.918,0,0,1-12.77-.831A26.51,26.51,0,0,1-2074.121-734.688Z" transform="translate(2088.829 740.989)" fill="#1a1818"/><path d="M-1941.823-745.562v5.537c8.815-.168,15.647-1.343,15.647-2.769S-1933.008-745.394-1941.823-745.562Z" transform="translate(1974.744 746.703)" fill="#e0cce3"/><path d="M-2017.115-742.838a86.924,86.924,0,0,1-12.77-.831c-4.378-.686-6.164-1.578-6.164-3.079s1.786-2.393,6.164-3.079a86.923,86.923,0,0,1,12.77-.831,86.922,86.922,0,0,1,12.77.831c4.378.686,6.164,1.578,6.164,3.079s-1.786,2.393-6.164,3.079A86.923,86.923,0,0,1-2017.115-742.838Zm-16.158-3.909c1.846.72,7.246,1.67,16.158,1.67s14.313-.95,16.159-1.67c-1.846-.72-7.246-1.67-16.159-1.67S-2031.428-747.467-2033.274-746.747Zm32.966.357h0Z" transform="translate(2047.869 750.657)" fill="#1a1818"/></g></g></svg>