<svg xmlns="http://www.w3.org/2000/svg" width="195.798" height="125.405" viewBox="0 0 195.798 125.405"><g transform="translate(-1137.265 -150.173)"><g transform="translate(1093.149 2361.158) rotate(75)"><g transform="translate(-2088.829 -750.657)"><path d="M-2068.275-733.2c0,2.032,10.521,3.68,23.5,3.68s23.5-1.648,23.5-3.68l-9.8,33.294c33.22,43.454,26.439,97.542,13.387,101.236a100.494,100.494,0,0,1-27.383,4.121h-.676a100.488,100.488,0,0,1-27.382-4.121c-13.052-3.693-19.833-57.782,13.386-101.236Z" transform="translate(2085.344 738.356)" fill="#fab9aa"/><path d="M-2036.295-551.75a1.772,1.772,0,0,1-.6-.1,1.773,1.773,0,0,1-1.069-2.268,74.978,74.978,0,0,1,12.59-22.674,1.773,1.773,0,0,1,2.491-.279,1.772,1.772,0,0,1,.279,2.491,71.622,71.622,0,0,0-12.024,21.661A1.773,1.773,0,0,1-2036.295-551.75Z" transform="translate(2053.063 628.627)" fill="#fff"/><path d="M-2047.208-461.42a1.717,1.717,0,0,1-.348-.033,1.872,1.872,0,0,1-.331-.1,1.653,1.653,0,0,1-.3-.162,2,2,0,0,1-.272-.219,2,2,0,0,1-.219-.272,1.712,1.712,0,0,1-.163-.3,1.919,1.919,0,0,1-.1-.331,2,2,0,0,1-.032-.349,1.792,1.792,0,0,1,.517-1.253,1.811,1.811,0,0,1,.272-.222,1.846,1.846,0,0,1,.3-.162,1.852,1.852,0,0,1,.331-.1,1.83,1.83,0,0,1,.694,0,1.852,1.852,0,0,1,.331.1,2.047,2.047,0,0,1,.307.162,1.752,1.752,0,0,1,.269.222,1.782,1.782,0,0,1,.52,1.253,1.758,1.758,0,0,1-.035.349,1.849,1.849,0,0,1-.1.331,1.884,1.884,0,0,1-.162.3,1.8,1.8,0,0,1-.221.272,1.924,1.924,0,0,1-.269.219,1.814,1.814,0,0,1-.307.162,1.872,1.872,0,0,1-.331.1A1.711,1.711,0,0,1-2047.208-461.42Z" transform="translate(2060.751 549.36)" fill="#fff"/><g transform="translate(41.988 5.157)"><g transform="translate(21.985)"><path d="M-1872.272-732.878a.67.67,0,0,0,.094-.321Z" transform="translate(1872.272 733.199)" fill="#f3a1a1"/></g><g transform="translate(0 0.321)"><path d="M-1934.417-699.139l9.709-32.973c-.906,1.641-8.682,2.973-18.8,3.288l1.68,30.233c11.239,11.778,18.438,29.864,18.438,50.148,0,23.075-9.315,43.307-23.3,54.641a101.984,101.984,0,0,0,25.663-4.1C-1907.978-601.6-1901.2-655.685-1934.417-699.139Z" transform="translate(1946.693 732.112)" fill="#f3a1a1"/></g></g><ellipse cx="23.499" cy="3.68" rx="23.499" ry="3.68" transform="translate(17.069 1.477)" fill="#f7f8f9"/><path d="M-2048.56-596.594h-.676a101.305,101.305,0,0,1-27.784-4.177c-3.632-1.028-6.689-4.993-8.844-11.469-3.466-10.418-3.92-25.613-1.216-40.646a120.193,120.193,0,0,1,22.24-50.869l-8.223-32.1a2.151,2.151,0,0,1-.174-.866,1.477,1.477,0,0,1,1.292-1.465,1.478,1.478,0,0,1,1.61,1.081c1.246.949,8.632,2.588,22.074,2.588s20.825-1.638,22.073-2.588l.01-.033a1.477,1.477,0,0,1,1.627-1.045,1.476,1.476,0,0,1,1.266,1.462,2.13,2.13,0,0,1-.223.97l-9.429,32.025a120.176,120.176,0,0,1,22.22,50.842c2.7,15.033,2.25,30.227-1.216,40.646-2.154,6.475-5.212,10.441-8.843,11.469A101.309,101.309,0,0,1-2048.56-596.594Zm-20.867-136.974,7.626,29.773a1.479,1.479,0,0,1-.257,1.264,117.177,117.177,0,0,0-22.114,50.169c-2.621,14.569-2.206,29.219,1.111,39.19,1.779,5.347,4.273,8.831,6.845,9.558a98.4,98.4,0,0,0,26.98,4.065h.676a98.4,98.4,0,0,0,26.98-4.065c2.571-.728,5.066-4.212,6.845-9.558,3.317-9.971,3.732-24.621,1.112-39.19a117.189,117.189,0,0,0-22.114-50.169,1.478,1.478,0,0,1-.244-1.314l8.74-29.68a35.844,35.844,0,0,1-4.174.865,114.672,114.672,0,0,1-16.845,1.1,114.662,114.662,0,0,1-16.845-1.1A34.961,34.961,0,0,1-2069.427-733.568Z" transform="translate(2088.829 741.879)" fill="#1a1818"/><path d="M-1941.823-745.562v7.3c11.629-.221,20.641-1.771,20.641-3.652S-1930.195-745.341-1941.823-745.562Z" transform="translate(1985.25 747.067)" fill="#e0cce3"/><path d="M-2011.073-740.343a114.673,114.673,0,0,1-16.845-1.1c-5.776-.9-8.131-2.081-8.131-4.062s2.355-3.157,8.131-4.062a114.654,114.654,0,0,1,16.845-1.1,114.652,114.652,0,0,1,16.845,1.1c5.776.9,8.132,2.081,8.132,4.062s-2.356,3.157-8.132,4.062A114.67,114.67,0,0,1-2011.073-740.343Zm-21.315-5.157c2.436.95,9.559,2.2,21.315,2.2s18.88-1.253,21.316-2.2c-2.435-.949-9.559-2.2-21.316-2.2S-2029.953-746.449-2032.388-745.5Zm43.487.471h0Z" transform="translate(2051.641 750.657)" fill="#1a1818"/></g></g><g transform="translate(1276.587 229.706) rotate(-7)"><g transform="translate(15.319 39.5)"><path d="M-502.874,1387.071s-3.864-.742-3.95,1.549,3.863.743,4.387.554A1.218,1.218,0,0,0-502.874,1387.071Z" transform="translate(506.825 -1381.263)" fill="#1a1818" fill-rule="evenodd"/><g transform="translate(0.353)"><path d="M-501.538,1367.9a.636.636,0,0,1-.325-.077c-2.352-1.284-3.443-2.565-3.336-3.919.155-1.943,2.8-2.934,3.1-3.041a.633.633,0,0,1,.808.386.633.633,0,0,1-.385.808c-.563.2-2.187.991-2.262,1.949-.06.768.892,1.728,2.679,2.7a.634.634,0,0,1,.253.86A.635.635,0,0,1-501.538,1367.9Z" transform="translate(505.206 -1360.823)" fill="#1a1818"/></g></g><g transform="translate(31.898 39.319)"><path d="M-426.783,1386.241s-3.864-.742-3.949,1.549,3.862.743,4.387.554A1.218,1.218,0,0,0-426.783,1386.241Z" transform="translate(430.733 -1380.433)" fill="#1a1818" fill-rule="evenodd"/><g transform="translate(0.353)"><path d="M-425.448,1367.068a.633.633,0,0,1-.325-.078c-2.352-1.284-3.443-2.565-3.335-3.918.155-1.944,2.8-2.935,3.1-3.042a.634.634,0,0,1,.808.386.633.633,0,0,1-.385.809c-.563.2-2.187.991-2.262,1.949-.06.768.892,1.728,2.68,2.7a.634.634,0,0,1,.253.86A.635.635,0,0,1-425.448,1367.068Z" transform="translate(429.115 -1359.995)" fill="#1a1818"/></g></g><ellipse cx="21.178" cy="5.387" rx="21.178" ry="5.387" transform="translate(5.866 1.09)" fill="#f7f8f9"/><path d="M-416.776,1186.305v10c7.786-.8,13.284-2.735,13.284-5S-408.99,1187.1-416.776,1186.305Z" transform="translate(451.715 -1184.828)" fill="#e0cce3"/><path d="M-507.858,1209.255c0,2.975-9.482,5.387-21.178,5.387s-21.178-2.412-21.178-5.387c0,19.521,6.709,35.441,21.178,35.441C-515.055,1244.7-507.858,1229.844-507.858,1209.255Z" transform="translate(556.08 -1202.778)" fill="#fab9aa"/><path d="M-531.859,1247.818a.654.654,0,0,1-.642-.538c-.292-1.623-.527-3.328-.7-5.069a.653.653,0,0,1,.586-.715.653.653,0,0,1,.715.586c.168,1.707.4,3.378.685,4.966a.654.654,0,0,1-.527.759A.634.634,0,0,1-531.859,1247.818Z" transform="translate(542.776 -1227.992)" fill="#fff"/><path d="M-527.406,1275.648a.656.656,0,0,1-.462-.192.657.657,0,0,1-.192-.462.664.664,0,0,1,.013-.129.612.612,0,0,1,.037-.122.678.678,0,0,1,.059-.111.613.613,0,0,1,.083-.1.653.653,0,0,1,.588-.179.636.636,0,0,1,.124.037.565.565,0,0,1,.111.061.508.508,0,0,1,.1.08.6.6,0,0,1,.081.1.683.683,0,0,1,.061.111.8.8,0,0,1,.037.122.664.664,0,0,1,.013.129.657.657,0,0,1-.192.462.518.518,0,0,1-.1.081.667.667,0,0,1-.111.061.62.62,0,0,1-.124.037A.634.634,0,0,1-527.406,1275.648Z" transform="translate(538.753 -1253.683)" fill="#fff"/><g transform="translate(25.306 6.548)"><path d="M-446.25,1213.835c-.683,17.51-5.669,30-14.737,31.106.567.052,1.145.082,1.738.082,13.981,0,21.178-14.852,21.178-35.441C-438.072,1211.311-441.274,1212.849-446.25,1213.835Z" transform="translate(460.988 -1209.582)" fill="#f3a1a1"/></g><path d="M-532.947,1241.875c-7.207,0-13.076-3.793-16.972-10.97-3.464-6.38-5.3-15.219-5.3-25.561a1.089,1.089,0,0,1,1.089-1.089,1.089,1.089,0,0,1,1.089,1.089c0,9.98,1.74,18.459,5.031,24.521,3.542,6.523,8.608,9.831,15.057,9.831,6.34,0,11.347-3.178,14.883-9.446,3.406-6.036,5.205-14.648,5.205-24.906a1.089,1.089,0,0,1,1.089-1.089,1.089,1.089,0,0,1,1.089,1.089c0,10.632-1.9,19.615-5.487,25.977C-520.061,1238.225-525.864,1241.875-532.947,1241.875Z" transform="translate(559.99 -1198.868)" fill="#1a1818"/><path d="M-532.947,1192.481c-10.725,0-22.267-2.027-22.267-6.477s11.543-6.477,22.267-6.477,22.267,2.027,22.267,6.477S-522.222,1192.481-532.947,1192.481Zm0-10.775a62.516,62.516,0,0,0-14.707,1.544c-4.415,1.123-5.382,2.369-5.382,2.754s.967,1.63,5.382,2.754a62.518,62.518,0,0,0,14.707,1.544,62.518,62.518,0,0,0,14.707-1.544c4.415-1.123,5.382-2.369,5.382-2.754s-.967-1.631-5.382-2.754A62.516,62.516,0,0,0-532.947,1181.707Z" transform="translate(559.99 -1179.528)" fill="#1a1818"/><g transform="translate(0 21.813)"><g transform="translate(2.087 2.177)"><path d="M-559.751,1295.355a.523.523,0,0,1-.055,0,10.435,10.435,0,0,1-7.677-4.945.509.509,0,0,1,.173-.7.509.509,0,0,1,.7.173,9.533,9.533,0,0,0,6.88,4.455.509.509,0,0,1,.47.545A.509.509,0,0,1-559.751,1295.355Z" transform="translate(567.556 -1289.638)" fill="#1a1818"/></g><path d="M-576.381,1279.779s-1.06.605-.669,1.42,1.494,2.388,2.952,1.265,1.228-1.872.42-2.054-.881.462-.881.462S-575.091,1279.167-576.381,1279.779Z" transform="translate(577.137 -1279.646)" fill="#1a1818" fill-rule="evenodd"/></g><g transform="translate(43.881 21.899)"><g transform="translate(0 2.263)"><path d="M-375.207,1296.637a.508.508,0,0,1-.521-.436.508.508,0,0,1,.43-.576,9.583,9.583,0,0,0,6.555-4.922.509.509,0,0,1,.685-.222.509.509,0,0,1,.221.685,10.436,10.436,0,0,1-7.315,5.466A.487.487,0,0,1-375.207,1296.637Z" transform="translate(375.732 -1290.426)" fill="#1a1818"/></g><path d="M-345.624,1280.136s1.1.53.766,1.37-1.324,2.485-2.857,1.467-1.355-1.783-.562-2.02.911.4.911.4S-346.952,1279.615-345.624,1280.136Z" transform="translate(354.726 -1280.038)" fill="#1a1818" fill-rule="evenodd"/></g><path d="M-415.971,1331.439c.763-.021,1.375-.391,1.364-.824s-.643-.768-1.407-.747-1.374.39-1.362.823S-416.733,1331.459-415.971,1331.439Z" transform="translate(452.184 -1297.112)" fill="#e94153" fill-rule="evenodd"/><path d="M-500,1325.413c.762-.021,1.374-.39,1.361-.823s-.643-.768-1.405-.748-1.374.39-1.362.823S-500.766,1325.434-500,1325.413Z" transform="translate(517.909 -1292.399)" fill="#e94153" fill-rule="evenodd"/><g transform="translate(22.33 28.006)"><path d="M-465.512,1308.488s-6.612.753-8.91-.417c0,0-1.636,6.78,3.952,6.782,3.684,0,4.6-2.156,4.85-4.217C-465.492,1309.573-465.571,1309.187-465.512,1308.488Z" transform="translate(474.645 -1308.071)" fill="#1a1818" fill-rule="evenodd"/><path d="M-470.181,1320.765a3.761,3.761,0,0,1-4.095-3.554c.949-1.259,2.223-1.535,4.765-1.581a5.019,5.019,0,0,1,4.033,1.773C-465.886,1319.163-467.007,1320.767-470.181,1320.765Z" transform="translate(474.356 -1313.982)" fill="#d72449" fill-rule="evenodd"/><path d="M-463.346,1324.644s1.162-1.044,1.112-1.528-.855-1.292-3.2-1.147-3.3.475-3.357,1.185.2,1.857,2.177,1.985S-464.184,1325.335-463.346,1324.644Z" transform="translate(470.069 -1318.927)" fill="#e94153" fill-rule="evenodd"/><path d="M-458.626,1331.95s-.306.477-1.651.453-2.077-.118-1.9-.431.584-.276,1.384-.211a7.5,7.5,0,0,0,1.5.009C-459.155,1331.741-458.5,1331.587-458.626,1331.95Z" transform="translate(464.916 -1326.562)" fill="#ed6368" fill-rule="evenodd"/></g><g transform="translate(33.573 26.564)"><path d="M-418.038,1304.571a.478.478,0,0,1-.485-.4c-.011-.071-.309-1.767-1.761-1.762h-.048c-1.437.039-1.752,1.643-1.764,1.713a.477.477,0,0,1-.558.381.477.477,0,0,1-.382-.556,2.932,2.932,0,0,1,2.748-2.494,2.881,2.881,0,0,1,2.707,2.568.478.478,0,0,1-.4.547A.525.525,0,0,1-418.038,1304.571Z" transform="translate(423.043 -1301.451)" fill="#1a1818"/></g><g transform="translate(15.045 25.814)"><path d="M-507.592,1301.253a.52.52,0,0,1-.063,0,.477.477,0,0,1-.426-.524,2.88,2.88,0,0,1,2.562-2.712l.073,0a2.94,2.94,0,0,1,2.807,2.342.478.478,0,0,1-.351.577.473.473,0,0,1-.576-.349c-.019-.07-.433-1.654-1.857-1.615l-.047,0c-1.462.076-1.654,1.784-1.663,1.856A.477.477,0,0,1-507.592,1301.253Z" transform="translate(508.083 -1298.011)" fill="#1a1818"/></g></g><g transform="translate(-3 -2)"><g transform="translate(1296.034 180.989)"><circle cx="8.5" cy="8.5" r="8.5" transform="translate(-0.034 0.011)" fill="#4bc2de"/><path d="M160.857,127.98a8.5,8.5,0,0,0,2.01-3.178l-7.485-7.485-2.46,6.063-1.594,2.954,4.123,4.123A8.5,8.5,0,0,0,160.857,127.98Z" transform="translate(-146.348 -113.471)" fill="#13a6cb"/><path d="M142.236,121.981a17.573,17.573,0,0,1,1.514-4.884,1.343,1.343,0,0,0,.065-1.011l-.6-1.8a.388.388,0,0,1,.368-.511H146.3a.388.388,0,0,1,.368.511l-.6,1.8a1.343,1.343,0,0,0,.065,1.011,17.57,17.57,0,0,1,1.514,4.884,1.117,1.117,0,0,1-1.1,1.283H143.34A1.117,1.117,0,0,1,142.236,121.981Z" transform="translate(-137.547 -110.05)" fill="#fff"/><path d="M227.084,121.981a17.575,17.575,0,0,0-1.514-4.884,1.343,1.343,0,0,1-.065-1.011l.6-1.8a.388.388,0,0,0-.368-.511H224.4v9.487h1.582A1.117,1.117,0,0,0,227.084,121.981Z" transform="translate(-216.98 -110.05)" fill="#d0d1d3"/><path d="M250.844,320.376H249.8c-.369,0-.706-.373-.87-.964l-.48-1.721h3.745l-.48,1.721C251.549,320,251.212,320.376,250.844,320.376Z" transform="translate(-240.23 -307.162)" fill="#d72449"/><path d="M304.546,317.69v2.686h.524c.369,0,.706-.373.87-.964l.48-1.722Z" transform="translate(-294.456 -307.162)" fill="#a11d38"/></g><g transform="translate(1309.784 198) rotate(25)"><ellipse cx="10.04" cy="10.04" rx="10.04" ry="10.04" transform="translate(0 0)" fill="#4bc2de"/><path d="M11.255,12.594a10.045,10.045,0,0,0,2.374-3.754L4.787,0,1.882,7.161,0,10.65l4.87,4.87A10.045,10.045,0,0,0,11.255,12.594Z" transform="translate(5.922 4.529)" fill="#13a6cb"/><path d="M.015,9.69A20.757,20.757,0,0,1,1.8,3.922a1.586,1.586,0,0,0,.077-1.194L1.173.6A.459.459,0,0,1,1.608,0H4.818a.459.459,0,0,1,.435.6L4.545,2.727a1.586,1.586,0,0,0,.077,1.194A20.754,20.754,0,0,1,6.411,9.691a1.319,1.319,0,0,1-1.3,1.515H1.32A1.319,1.319,0,0,1,.015,9.69Z" transform="translate(5.563 4.389)" fill="#fff"/><path d="M3.174,9.691A20.757,20.757,0,0,0,1.385,3.922a1.586,1.586,0,0,1-.077-1.194L2.016.6A.459.459,0,0,0,1.58,0H0V11.205H1.869A1.319,1.319,0,0,0,3.174,9.691Z" transform="translate(8.8 4.389)" fill="#d0d1d3"/><path d="M2.829,3.172H1.6c-.435,0-.833-.441-1.028-1.139L0,0H4.424L3.857,2.033C3.662,2.732,3.264,3.172,2.829,3.172Z" transform="translate(9.748 12.422)" fill="#d72449"/><path d="M0,0V3.172H.619c.435,0,.833-.441,1.028-1.139L2.214,0Z" transform="translate(11.958 12.422)" fill="#a11d38"/></g><g transform="matrix(0.995, -0.105, 0.105, 0.995, 1295.116, 181.861)"><g fill="none" stroke="#000" stroke-width="1.5"><ellipse cx="8.77" cy="8.77" rx="8.77" ry="8.77" stroke="none"/><ellipse cx="8.77" cy="8.77" rx="8.02" ry="8.02" fill="none"/></g></g><g transform="translate(1308.408 198.481) rotate(19)"><g fill="none" stroke="#000" stroke-width="1.5"><ellipse cx="10.359" cy="10.359" rx="10.359" ry="10.359" stroke="none"/><ellipse cx="10.359" cy="10.359" rx="9.609" ry="9.609" fill="none"/></g></g></g></g></svg>