<svg xmlns="http://www.w3.org/2000/svg" width="247.129" height="234.053" viewBox="0 0 247.129 234.053"><defs><style>.a,.b{fill:#1a1818;}.a,.h,.i,.j{fill-rule:evenodd;}.c{fill:#f7f8f9;}.d{fill:#e0cce3;}.e{fill:#fab9aa;}.f{fill:#fff;}.g{fill:#f3a1a1;}.h{fill:#e94153;}.i{fill:#d72449;}.j{fill:#ed6368;}</style></defs><g transform="matrix(0.995, 0.105, -0.105, 0.995, 709.273, -1115.031)"><path class="a" d="M-488.69,1387.483s-17.734-3.407-18.129,7.11,17.729,3.412,20.137,2.545S-483.084,1389.078-488.69,1387.483Z"/><path class="b" d="M-488.371,1393.289a2.911,2.911,0,0,1-1.492-.354c-10.8-5.892-15.8-11.775-15.31-17.985.712-8.92,12.851-13.469,14.235-13.958a2.906,2.906,0,0,1,3.71,1.772,2.9,2.9,0,0,1-1.767,3.708c-2.584.925-10.037,4.551-10.381,8.948-.277,3.524,4.092,7.931,12.3,12.409a2.911,2.911,0,0,1,1.161,3.946A2.914,2.914,0,0,1-488.371,1393.289Z"/><path class="a" d="M-412.6,1386.653s-17.733-3.407-18.127,7.11,17.728,3.411,20.136,2.545S-406.994,1388.249-412.6,1386.653Z"/><path class="b" d="M-412.283,1392.46a2.911,2.911,0,0,1-1.491-.356c-10.8-5.891-15.8-11.772-15.308-17.982.71-8.921,12.851-13.47,14.235-13.96a2.908,2.908,0,0,1,3.71,1.77,2.908,2.908,0,0,1-1.765,3.712c-2.585.923-10.037,4.547-10.384,8.946-.275,3.526,4.093,7.931,12.3,12.409a2.91,2.91,0,0,1,1.159,3.946A2.916,2.916,0,0,1-412.283,1392.46Z"/><ellipse class="c" cx="97.203" cy="24.727" rx="97.203" ry="24.727" transform="translate(-550.214 1184.529)"/><path class="d" d="M-416.776,1186.305v45.9c35.736-3.655,60.969-12.552,60.969-22.95S-381.04,1189.96-416.776,1186.305Z"/><path class="e" d="M-355.807,1209.255c0,13.656-43.52,24.727-97.2,24.727s-97.2-11.071-97.2-24.727c0,89.6,30.794,162.667,97.2,162.667C-388.84,1371.922-355.807,1303.754-355.807,1209.255Z"/><path class="f" d="M-527.031,1270.523a3,3,0,0,1-2.949-2.469c-1.341-7.447-2.42-15.275-3.209-23.267a3,3,0,0,1,2.691-3.28,3,3,0,0,1,3.28,2.69c.773,7.835,1.83,15.5,3.143,22.794a3,3,0,0,1-2.421,3.484A2.957,2.957,0,0,1-527.031,1270.523Z"/><path class="f" d="M-525.06,1280.34a3.014,3.014,0,0,1-2.12-.88,3.016,3.016,0,0,1-.88-2.12,3.023,3.023,0,0,1,.06-.59,2.812,2.812,0,0,1,.17-.561,3.132,3.132,0,0,1,.27-.509,2.775,2.775,0,0,1,.38-.46,3,3,0,0,1,2.7-.821,2.935,2.935,0,0,1,.57.17,2.59,2.59,0,0,1,.51.281,2.332,2.332,0,0,1,.46.37,2.721,2.721,0,0,1,.37.46,3.18,3.18,0,0,1,.28.509,3.663,3.663,0,0,1,.17.561,3.023,3.023,0,0,1,.06.59,3.016,3.016,0,0,1-.88,2.12,2.368,2.368,0,0,1-.46.37,3.14,3.14,0,0,1-.51.279,2.881,2.881,0,0,1-.57.171A2.933,2.933,0,0,1-525.06,1280.34Z"/><path class="g" d="M-393.346,1229.1c-3.136,80.369-26.019,137.694-67.642,142.77,2.6.241,5.257.376,7.977.376,64.171,0,97.2-68.168,97.2-162.667C-355.807,1217.517-370.5,1224.578-393.346,1229.1Z"/><path class="b" d="M-453.011,1376.922c-33.077,0-60.014-17.41-77.9-50.349-15.9-29.283-24.3-69.851-24.3-117.318a5,5,0,0,1,5-5,5,5,0,0,1,5,5c0,45.806,7.985,84.724,23.092,112.547,16.256,29.939,39.509,45.12,69.111,45.12,29.1,0,52.081-14.586,68.311-43.354,15.631-27.7,23.892-67.232,23.892-114.313a5,5,0,0,1,5-5,5,5,0,0,1,5,5c0,48.8-8.708,90.027-25.182,119.227C-393.869,1360.172-420.5,1376.922-453.011,1376.922Z"/><path class="b" d="M-453.011,1238.981c-49.224,0-102.2-9.3-102.2-29.726s52.979-29.727,102.2-29.727,102.2,9.3,102.2,29.727S-403.787,1238.981-453.011,1238.981Zm0-49.453c-25.56,0-49.532,2.518-67.5,7.088-20.265,5.155-24.7,10.871-24.7,12.639s4.438,7.483,24.7,12.639c17.968,4.57,41.94,7.087,67.5,7.087s49.533-2.517,67.5-7.087c20.264-5.156,24.7-10.872,24.7-12.639s-4.438-7.484-24.7-12.639C-403.478,1192.046-427.45,1189.528-453.011,1189.528Z"/><path class="b" d="M-531.732,1315.879a2.422,2.422,0,0,1-.254-.005,47.894,47.894,0,0,1-35.235-22.7,2.334,2.334,0,0,1,.795-3.2,2.335,2.335,0,0,1,3.206.8c11.287,18.741,31.377,20.432,31.577,20.447a2.336,2.336,0,0,1,2.157,2.5A2.337,2.337,0,0,1-531.732,1315.879Z"/><path class="a" d="M-573.668,1280.256s-4.866,2.778-3.071,6.515,6.857,10.959,13.55,5.808,5.638-8.594,1.927-9.428-4.043,2.12-4.043,2.12S-567.75,1277.445-573.668,1280.256Z"/><path class="b" d="M-373.319,1318.935a2.335,2.335,0,0,1-2.389-2,2.333,2.333,0,0,1,1.973-2.644c.258-.04,20.184-3.221,30.086-22.592a2.335,2.335,0,0,1,3.142-1.017,2.336,2.336,0,0,1,1.016,3.142,47.9,47.9,0,0,1-33.573,25.088A2.541,2.541,0,0,1-373.319,1318.935Z"/><path class="a" d="M-333.956,1280.486s5.046,2.433,3.514,6.287-6.079,11.406-13.112,6.734-6.221-8.183-2.578-9.273,4.181,1.836,4.181,1.836S-340.055,1278.094-333.956,1280.486Z"/><path class="h" d="M-410.926,1337.082c3.5-.1,6.31-1.8,6.259-3.783s-2.953-3.525-6.457-3.428-6.307,1.79-6.251,3.778S-414.425,1337.177-410.926,1337.082Z"/><path class="h" d="M-494.955,1331.056c3.5-.1,6.3-1.79,6.249-3.78s-2.951-3.525-6.45-3.431-6.307,1.792-6.253,3.778S-498.456,1331.153-494.955,1331.056Z"/><path class="a" d="M-432.726,1309.986s-30.35,3.457-40.895-1.915c0,0-7.508,31.118,18.138,31.13,16.911.012,21.118-9.9,22.262-19.354C-432.633,1314.966-433,1313.195-432.726,1309.986Z"/><path class="i" d="M-455.483,1339.2c-13.229-.005-17.628-8.288-18.793-16.31,4.355-5.78,10.2-7.044,21.868-7.257a23.04,23.04,0,0,1,18.51,8.136C-435.768,1331.851-440.912,1339.213-455.483,1339.2Z"/><path class="h" d="M-443.788,1334.31s5.335-4.791,5.1-7.015-3.923-5.931-14.673-5.265-15.156,2.18-15.408,5.438.921,8.522,9.994,9.111S-447.633,1337.484-443.788,1334.31Z"/><path class="j" d="M-445.779,1332.8s-1.4,2.189-7.577,2.079-9.535-.539-8.732-1.978,2.682-1.267,6.351-.969a34.535,34.535,0,0,0,6.9.04C-448.206,1331.843-445.2,1331.136-445.779,1332.8Z"/><path class="b" d="M-400.072,1315.772a2.2,2.2,0,0,1-2.224-1.848c-.051-.326-1.416-8.109-8.081-8.088-.072,0-.147,0-.219,0-6.6.181-8.042,7.543-8.1,7.86a2.19,2.19,0,0,1-2.559,1.75,2.189,2.189,0,0,1-1.752-2.551c.735-3.949,4.318-11.405,12.613-11.445,8.349-.024,11.779,7.7,12.426,11.786a2.192,2.192,0,0,1-1.822,2.509A2.343,2.343,0,0,1-400.072,1315.772Z"/><path class="b" d="M-505.829,1312.893a2.322,2.322,0,0,1-.289-.013,2.19,2.19,0,0,1-1.953-2.405c.419-4.114,3.423-12.014,11.76-12.446.114,0,.223-.008.335-.013,8.061-.219,11.948,6.9,12.884,10.749a2.193,2.193,0,0,1-1.61,2.649,2.173,2.173,0,0,1-2.644-1.6c-.086-.319-1.988-7.59-8.521-7.412-.072,0-.146.006-.216.01-6.709.348-7.593,8.186-7.631,8.519A2.189,2.189,0,0,1-505.829,1312.893Z"/></g></svg>