<?xml version="1.0" encoding="utf-8"?>
<!-- Generator: Adobe Illustrator 24.2.3, SVG Export Plug-In . SVG Version: 6.00 Build 0)  -->
<svg version="1.1" id="Layer_1" xmlns="http://www.w3.org/2000/svg" xmlns:xlink="http://www.w3.org/1999/xlink" x="0px" y="0px"
	 viewBox="0 0 41 50.2" style="enable-background:new 0 0 41 50.2;" xml:space="preserve">
<style type="text/css">
	.st0{fill:#90A4AE;}
	.st1{fill:#7D8F97;}
	.st2{fill:#FFC107;}
	.st3{fill:#DEA806;}
</style>
<g transform="translate(-948.184 -526.229)">
	<g transform="translate(950.184 528.229)">
		<g transform="translate(-57.069 0)">
			<path class="st0" d="M78.6,22c-0.6,0-1.1-0.5-1.1-1.1v-2.1c0-1.1-0.9-2-2-2c-1.1,0-2,0.9-2,2v2.1c0,0.6-0.5,1.1-1.1,1.1
				s-1.1-0.5-1.1-1.1v-2.1c0-2.3,1.8-4.1,4.1-4.1c2.3,0,4.2,1.9,4.2,4.2V21C79.7,21.5,79.2,22,78.6,22z"/>
			<path d="M78.6,21.7c0.4,0,0.8-0.3,0.8-0.8v-2.1c0-2.1-1.7-3.8-3.8-3.8c-2.1,0-3.8,1.7-3.8,3.8V21c0,0.4,0.3,0.8,0.8,0.8
				s0.8-0.3,0.8-0.8v-2.1c0-1.3,1-2.3,2.3-2.3c1.3,0,2.3,1,2.3,2.3V21C77.9,21.4,78.2,21.7,78.6,21.7 M78.6,22.4
				c-0.8,0-1.4-0.6-1.4-1.4v-2.1c0-0.9-0.7-1.6-1.6-1.6c-0.9,0-1.6,0.7-1.6,1.6v2.1c0,0.8-0.6,1.4-1.4,1.4s-1.4-0.6-1.4-1.4v-2.1
				c0-2.5,2-4.5,4.5-4.5c2.5,0,4.5,2,4.5,4.5V21C80.1,21.7,79.4,22.4,78.6,22.4z"/>
		</g>
		<path class="st1" d="M18.5,15c-2.1,0-3.8,1.7-3.8,3.8v1.5h1.5v-1.5c0-1.3,1-2.3,2.3-2.3L18.5,15L18.5,15z"/>
		<g transform="translate(0 -133.16)">
			<path class="st2" d="M22.9,163.8h-8.8c-1.1,0-2.1-0.9-2.1-2.1v-6.5c0-1.1,0.9-2.1,2.1-2.1h8.8c1.1,0,2.1,0.9,2.1,2.1v6.5
				C25,162.9,24,163.8,22.9,163.8z"/>
			<path d="M22.9,163.5c1,0,1.7-0.8,1.7-1.7v-6.5c0-1-0.8-1.7-1.7-1.7h-8.8c-1,0-1.7,0.8-1.7,1.7v6.5c0,1,0.8,1.7,1.7,1.7H22.9
				 M22.9,164.2h-8.8c-1.3,0-2.4-1.1-2.4-2.4v-6.5c0-1.3,1.1-2.4,2.4-2.4h8.8c1.3,0,2.4,1.1,2.4,2.4v6.5
				C25.3,163.1,24.2,164.2,22.9,164.2z"/>
		</g>
		<path class="st3" d="M18.5,20.4h-4.4c-1,0-1.7,0.8-1.7,1.7v6.5c0,1,0.8,1.7,1.7,1.7h4.4V20.4z"/>
	</g>
</g>
</svg>
