<svg xmlns="http://www.w3.org/2000/svg" width="180.257" height="133.247" viewBox="0 0 180.257 133.247"><defs><style>.a,.i{fill:#fff;}.b,.c{fill:#1a1818;}.b,.h,.i,.j,.k,.l,.m{fill-rule:evenodd;}.d{fill:#f7f8f9;}.e{fill:#e0cce3;}.f{fill:#fab9aa;}.g,.h{fill:#f3a1a1;}.j{fill:#e94153;}.k{fill:#d72449;}.l{fill:#ef6f71;}.m{fill:#ed6368;}</style></defs><g transform="translate(-348.872 -33.753)"><circle class="a" cx="60.5" cy="60.5" r="60.5" transform="translate(379 46)"/><g transform="translate(1506.366 -835.991)"><g transform="translate(-1157.494 939.245)"><g transform="translate(15.319 39.5)"><path class="b" d="M-1083.232,1396.28s-3.864-.742-3.95,1.549,3.863.743,4.387.555A1.218,1.218,0,0,0-1083.232,1396.28Z" transform="translate(1087.183 -1390.472)"/><g transform="translate(0.353)"><path class="c" d="M-1081.9,1377.106a.635.635,0,0,1-.325-.077c-2.352-1.284-3.443-2.566-3.336-3.918.155-1.944,2.8-2.935,3.1-3.041a.633.633,0,0,1,.808.386.633.633,0,0,1-.385.808c-.563.2-2.187.991-2.262,1.949-.06.768.892,1.728,2.68,2.7a.634.634,0,0,1,.253.86A.635.635,0,0,1-1081.9,1377.106Z" transform="translate(1085.563 -1370.032)"/></g></g><g transform="translate(31.897 39.319)"><path class="b" d="M-1007.141,1395.45s-3.864-.742-3.949,1.549,3.862.743,4.387.554A1.218,1.218,0,0,0-1007.141,1395.45Z" transform="translate(1011.091 -1389.642)"/><g transform="translate(0.353)"><path class="c" d="M-1005.806,1376.277a.635.635,0,0,1-.325-.078c-2.352-1.283-3.443-2.565-3.335-3.918.155-1.944,2.8-2.935,3.1-3.042a.633.633,0,0,1,.808.386.633.633,0,0,1-.385.809c-.563.2-2.187.991-2.262,1.949-.06.768.892,1.728,2.68,2.7a.634.634,0,0,1,.252.86A.636.636,0,0,1-1005.806,1376.277Z" transform="translate(1009.473 -1369.204)"/></g></g><ellipse class="d" cx="21.178" cy="5.387" rx="21.178" ry="5.387" transform="translate(5.866 1.089)"/><path class="e" d="M-997.134,1195.514v10c7.786-.8,13.284-2.735,13.284-5S-989.348,1196.31-997.134,1195.514Z" transform="translate(1032.072 -1194.037)"/><path class="f" d="M-1088.215,1218.464c0,2.975-9.482,5.387-21.178,5.387s-21.178-2.412-21.178-5.387c0,19.521,6.709,35.441,21.178,35.441C-1095.412,1253.905-1088.215,1239.053-1088.215,1218.464Z" transform="translate(1136.437 -1211.987)"/><path class="a" d="M-1112.216,1257.026a.654.654,0,0,1-.642-.538c-.292-1.623-.527-3.328-.7-5.069a.653.653,0,0,1,.586-.715.652.652,0,0,1,.715.586c.168,1.707.4,3.378.685,4.966a.654.654,0,0,1-.527.759A.632.632,0,0,1-1112.216,1257.026Z" transform="translate(1123.133 -1237.2)"/><path class="a" d="M-1107.766,1284.858a.625.625,0,0,1-.126-.013.781.781,0,0,1-.124-.037.686.686,0,0,1-.111-.061.6.6,0,0,1-.1-.08.658.658,0,0,1-.192-.462.647.647,0,0,1,.013-.129.807.807,0,0,1,.037-.122.819.819,0,0,1,.061-.113.677.677,0,0,1,.081-.1.626.626,0,0,1,.1-.083.694.694,0,0,1,.111-.059.62.62,0,0,1,.124-.037.654.654,0,0,1,.588.179.7.7,0,0,1,.083.1.8.8,0,0,1,.059.113.624.624,0,0,1,.037.122.638.638,0,0,1,.013.129.658.658,0,0,1-.192.462A.658.658,0,0,1-1107.766,1284.858Z" transform="translate(1119.112 -1262.893)"/><g transform="translate(25.306 6.548)"><path class="g" d="M-1026.608,1223.044c-.683,17.51-5.669,30-14.737,31.106.567.053,1.145.082,1.738.082,13.981,0,21.178-14.852,21.178-35.441C-1018.429,1220.52-1021.631,1222.058-1026.608,1223.044Z" transform="translate(1041.345 -1218.791)"/></g><path class="c" d="M-1113.3,1251.084c-7.207,0-13.076-3.793-16.973-10.97-3.464-6.38-5.3-15.219-5.3-25.561a1.089,1.089,0,0,1,1.089-1.089,1.089,1.089,0,0,1,1.089,1.089c0,9.98,1.74,18.459,5.031,24.521,3.542,6.523,8.608,9.831,15.058,9.831,6.339,0,11.347-3.178,14.883-9.446,3.405-6.036,5.206-14.648,5.206-24.906a1.089,1.089,0,0,1,1.089-1.089,1.089,1.089,0,0,1,1.089,1.089c0,10.632-1.9,19.615-5.487,25.977C-1100.418,1247.434-1106.221,1251.084-1113.3,1251.084Z" transform="translate(1140.347 -1208.077)"/><path class="c" d="M-1113.3,1201.69c-10.725,0-22.268-2.027-22.268-6.476s11.543-6.477,22.268-6.477,22.267,2.027,22.267,6.477S-1102.579,1201.69-1113.3,1201.69Zm0-10.774a62.515,62.515,0,0,0-14.707,1.544c-4.415,1.123-5.382,2.369-5.382,2.754s.967,1.63,5.382,2.754a62.515,62.515,0,0,0,14.707,1.544,62.51,62.51,0,0,0,14.707-1.544c4.415-1.123,5.382-2.369,5.382-2.754s-.967-1.631-5.382-2.754A62.51,62.51,0,0,0-1113.3,1190.916Z" transform="translate(1140.347 -1188.737)"/><g transform="translate(0 21.813)"><g transform="translate(2.087 2.177)"><path class="c" d="M-1140.109,1304.564a.522.522,0,0,1-.055,0,10.435,10.435,0,0,1-7.677-4.945.509.509,0,0,1,.173-.7.509.509,0,0,1,.7.173,9.533,9.533,0,0,0,6.88,4.455.509.509,0,0,1,.47.545A.509.509,0,0,1-1140.109,1304.564Z" transform="translate(1147.914 -1298.847)"/></g><path class="b" d="M-1156.738,1288.988s-1.06.605-.669,1.419,1.494,2.388,2.952,1.265,1.229-1.872.42-2.054-.881.462-.881.462S-1155.448,1288.376-1156.738,1288.988Z" transform="translate(1157.494 -1288.856)"/></g><g transform="translate(43.881 21.899)"><g transform="translate(0 2.263)"><path class="c" d="M-955.564,1305.846a.508.508,0,0,1-.521-.436.508.508,0,0,1,.43-.576,9.582,9.582,0,0,0,6.555-4.922.509.509,0,0,1,.685-.222.509.509,0,0,1,.221.684,10.436,10.436,0,0,1-7.314,5.466A.517.517,0,0,1-955.564,1305.846Z" transform="translate(956.089 -1299.635)"/></g><path class="b" d="M-925.981,1289.345s1.1.53.766,1.37-1.324,2.485-2.857,1.467-1.356-1.783-.562-2.02.911.4.911.4S-927.31,1288.824-925.981,1289.345Z" transform="translate(935.083 -1289.247)"/></g><g transform="translate(14.524 23.643)"><path class="h" d="M-1037.962,1354.057a2.207,2.207,0,0,1-2.026,1.084c-1.479-.02-2.494-.948-1.23-.911A31,31,0,0,0-1037.962,1354.057Z" transform="translate(1052.475 -1341.681)"/><g transform="translate(10.219)"><path class="b" d="M-1041.744,1308.347c-1.231-.01-2.211-2.511-2.182-5.566s1.051-5.534,2.281-5.524,2.22,2.509,2.182,5.566S-1040.515,1308.358-1041.744,1308.347Z" transform="translate(1043.926 -1297.257)"/><path class="i" d="M-1039.449,1297.255c-.654-.019-1.251.692-1.67,1.8.484.426,2.534.3,3.35.138C-1038.236,1297.934-1038.718,1297.277-1039.449,1297.255Z" transform="translate(1041.731 -1297.255)"/><path class="j" d="M-1043.9,1320.9c.091,2.79,1.021,4.978,2.177,4.988s2.128-2.169,2.266-4.969a2.581,2.581,0,0,0-2.107-1.23A2.914,2.914,0,0,0-1043.9,1320.9Z" transform="translate(1043.906 -1314.796)"/><path class="k" d="M-1043.9,1320.9a9.087,9.087,0,0,0,.92,4c-.18-1.9-.493-4.09.769-4.4a2.039,2.039,0,0,1,2.133.959,5.441,5.441,0,0,1-.554,3.742,8.387,8.387,0,0,0,1.175-4.281,2.581,2.581,0,0,0-2.107-1.23A2.914,2.914,0,0,0-1043.9,1320.9Z" transform="translate(1043.906 -1314.796)"/><path class="l" d="M-1036.1,1339.416s-.6,1.478-1.335,1.276-1.4-.54-.775-.612,1.071.2,1.368-.28S-1036.056,1339.121-1036.1,1339.416Z" transform="translate(1039.649 -1330.121)"/></g><g transform="translate(0 0.456)"><path class="c" d="M-1090.327,1302.711a.509.509,0,0,0,.507-.438c.011-.077.294-1.886,1.84-1.91.016,0,.034,0,.05,0,1.53.013,1.9,1.713,1.912,1.786a.5.5,0,0,0,.6.4.506.506,0,0,0,.395-.6,3.119,3.119,0,0,0-2.973-2.6,3.061,3.061,0,0,0-2.827,2.783.508.508,0,0,0,.431.575Z" transform="translate(1090.83 -1299.347)"/></g><path class="j" d="M-1085.444,1327.334c-.649-.007-1.179-.314-1.176-.685s.537-.665,1.19-.659,1.179.312,1.175.683S-1084.792,1327.34-1085.444,1327.334Z" transform="translate(1087.537 -1319.729)"/><path class="j" d="M-995.659,1328.147c-.649-.007-1.178-.314-1.176-.683s.538-.665,1.189-.66,1.179.312,1.177.681S-995.006,1328.153-995.659,1328.147Z" transform="translate(1017.314 -1320.366)"/><g transform="translate(17.831 0.615)"><path class="c" d="M-1003.688,1303.484l.067,0a.51.51,0,0,0,.443-.567,3.065,3.065,0,0,0-2.78-2.835l-.076,0a3.132,3.132,0,0,0-2.942,2.547.506.506,0,0,0,.384.605.5.5,0,0,0,.608-.382c.018-.072.428-1.767,1.942-1.752a.393.393,0,0,1,.052,0c1.557.05,1.793,1.862,1.8,1.94A.507.507,0,0,0-1003.688,1303.484Z" transform="translate(1008.99 -1300.077)"/></g></g></g><g transform="translate(-1031.048 937.238)"><g transform="translate(15.319 39.5)"><path class="b" d="M-502.874,1387.071s-3.864-.742-3.95,1.549,3.863.743,4.387.554A1.218,1.218,0,0,0-502.874,1387.071Z" transform="translate(506.825 -1381.263)"/><g transform="translate(0.353)"><path class="c" d="M-501.538,1367.9a.636.636,0,0,1-.325-.077c-2.352-1.284-3.443-2.565-3.336-3.919.155-1.943,2.8-2.934,3.1-3.041a.633.633,0,0,1,.808.386.633.633,0,0,1-.385.808c-.563.2-2.187.991-2.262,1.949-.06.768.892,1.728,2.679,2.7a.634.634,0,0,1,.253.86A.635.635,0,0,1-501.538,1367.9Z" transform="translate(505.206 -1360.823)"/></g></g><g transform="translate(31.898 39.319)"><path class="b" d="M-426.783,1386.241s-3.864-.742-3.949,1.549,3.862.743,4.387.554A1.218,1.218,0,0,0-426.783,1386.241Z" transform="translate(430.733 -1380.433)"/><g transform="translate(0.353)"><path class="c" d="M-425.448,1367.068a.633.633,0,0,1-.325-.078c-2.352-1.284-3.443-2.565-3.335-3.918.155-1.944,2.8-2.935,3.1-3.042a.634.634,0,0,1,.808.386.633.633,0,0,1-.385.809c-.563.2-2.187.991-2.262,1.949-.06.768.892,1.728,2.68,2.7a.634.634,0,0,1,.253.86A.635.635,0,0,1-425.448,1367.068Z" transform="translate(429.115 -1359.995)"/></g></g><ellipse class="d" cx="21.178" cy="5.387" rx="21.178" ry="5.387" transform="translate(5.866 1.09)"/><path class="e" d="M-416.776,1186.305v10c7.786-.8,13.284-2.735,13.284-5S-408.99,1187.1-416.776,1186.305Z" transform="translate(451.715 -1184.828)"/><path class="f" d="M-507.858,1209.255c0,2.975-9.482,5.387-21.178,5.387s-21.178-2.412-21.178-5.387c0,19.521,6.709,35.441,21.178,35.441C-515.055,1244.7-507.858,1229.844-507.858,1209.255Z" transform="translate(556.08 -1202.778)"/><path class="a" d="M-531.859,1247.818a.654.654,0,0,1-.642-.538c-.292-1.623-.527-3.328-.7-5.069a.653.653,0,0,1,.586-.715.653.653,0,0,1,.715.586c.168,1.707.4,3.378.685,4.966a.654.654,0,0,1-.527.759A.634.634,0,0,1-531.859,1247.818Z" transform="translate(542.776 -1227.992)"/><path class="a" d="M-527.406,1275.648a.656.656,0,0,1-.462-.192.657.657,0,0,1-.192-.462.664.664,0,0,1,.013-.129.612.612,0,0,1,.037-.122.678.678,0,0,1,.059-.111.613.613,0,0,1,.083-.1.653.653,0,0,1,.588-.179.636.636,0,0,1,.124.037.565.565,0,0,1,.111.061.508.508,0,0,1,.1.08.6.6,0,0,1,.081.1.683.683,0,0,1,.061.111.8.8,0,0,1,.037.122.664.664,0,0,1,.013.129.657.657,0,0,1-.192.462.518.518,0,0,1-.1.081.667.667,0,0,1-.111.061.62.62,0,0,1-.124.037A.634.634,0,0,1-527.406,1275.648Z" transform="translate(538.753 -1253.683)"/><g transform="translate(25.306 6.548)"><path class="g" d="M-446.25,1213.835c-.683,17.51-5.669,30-14.737,31.106.567.052,1.145.082,1.738.082,13.981,0,21.178-14.852,21.178-35.441C-438.072,1211.311-441.274,1212.849-446.25,1213.835Z" transform="translate(460.988 -1209.582)"/></g><path class="c" d="M-532.947,1241.875c-7.207,0-13.076-3.793-16.972-10.97-3.464-6.38-5.3-15.219-5.3-25.561a1.089,1.089,0,0,1,1.089-1.089,1.089,1.089,0,0,1,1.089,1.089c0,9.98,1.74,18.459,5.031,24.521,3.542,6.523,8.608,9.831,15.057,9.831,6.34,0,11.347-3.178,14.883-9.446,3.406-6.036,5.205-14.648,5.205-24.906a1.089,1.089,0,0,1,1.089-1.089,1.089,1.089,0,0,1,1.089,1.089c0,10.632-1.9,19.615-5.487,25.977C-520.061,1238.225-525.864,1241.875-532.947,1241.875Z" transform="translate(559.99 -1198.868)"/><path class="c" d="M-532.947,1192.481c-10.725,0-22.267-2.027-22.267-6.477s11.543-6.477,22.267-6.477,22.267,2.027,22.267,6.477S-522.222,1192.481-532.947,1192.481Zm0-10.775a62.516,62.516,0,0,0-14.707,1.544c-4.415,1.123-5.382,2.369-5.382,2.754s.967,1.63,5.382,2.754a62.518,62.518,0,0,0,14.707,1.544,62.518,62.518,0,0,0,14.707-1.544c4.415-1.123,5.382-2.369,5.382-2.754s-.967-1.631-5.382-2.754A62.516,62.516,0,0,0-532.947,1181.707Z" transform="translate(559.99 -1179.528)"/><g transform="translate(0 21.813)"><g transform="translate(2.087 2.177)"><path class="c" d="M-559.751,1295.355a.523.523,0,0,1-.055,0,10.435,10.435,0,0,1-7.677-4.945.509.509,0,0,1,.173-.7.509.509,0,0,1,.7.173,9.533,9.533,0,0,0,6.88,4.455.509.509,0,0,1,.47.545A.509.509,0,0,1-559.751,1295.355Z" transform="translate(567.556 -1289.638)"/></g><path class="b" d="M-576.381,1279.779s-1.06.605-.669,1.42,1.494,2.388,2.952,1.265,1.228-1.872.42-2.054-.881.462-.881.462S-575.091,1279.167-576.381,1279.779Z" transform="translate(577.137 -1279.646)"/></g><g transform="translate(43.881 21.899)"><g transform="translate(0 2.263)"><path class="c" d="M-375.207,1296.637a.508.508,0,0,1-.521-.436.508.508,0,0,1,.43-.576,9.583,9.583,0,0,0,6.555-4.922.509.509,0,0,1,.685-.222.509.509,0,0,1,.221.685,10.436,10.436,0,0,1-7.315,5.466A.487.487,0,0,1-375.207,1296.637Z" transform="translate(375.732 -1290.426)"/></g><path class="b" d="M-345.624,1280.136s1.1.53.766,1.37-1.324,2.485-2.857,1.467-1.355-1.783-.562-2.02.911.4.911.4S-346.952,1279.615-345.624,1280.136Z" transform="translate(354.726 -1280.038)"/></g><path class="j" d="M-415.971,1331.439c.763-.021,1.375-.391,1.364-.824s-.643-.768-1.407-.747-1.374.39-1.362.823S-416.733,1331.459-415.971,1331.439Z" transform="translate(452.184 -1297.112)"/><path class="j" d="M-500,1325.413c.762-.021,1.374-.39,1.361-.823s-.643-.768-1.405-.748-1.374.39-1.362.823S-500.766,1325.434-500,1325.413Z" transform="translate(517.909 -1292.399)"/><g transform="translate(22.33 28.006)"><path class="b" d="M-465.512,1308.488s-6.612.753-8.91-.417c0,0-1.636,6.78,3.952,6.782,3.684,0,4.6-2.156,4.85-4.217C-465.492,1309.573-465.571,1309.187-465.512,1308.488Z" transform="translate(474.645 -1308.071)"/><path class="k" d="M-470.181,1320.765a3.761,3.761,0,0,1-4.095-3.554c.949-1.259,2.223-1.535,4.765-1.581a5.019,5.019,0,0,1,4.033,1.773C-465.886,1319.163-467.007,1320.767-470.181,1320.765Z" transform="translate(474.356 -1313.982)"/><path class="j" d="M-463.346,1324.644s1.162-1.044,1.112-1.528-.855-1.292-3.2-1.147-3.3.475-3.357,1.185.2,1.857,2.177,1.985S-464.184,1325.335-463.346,1324.644Z" transform="translate(470.069 -1318.927)"/><path class="m" d="M-458.626,1331.95s-.306.477-1.651.453-2.077-.118-1.9-.431.584-.276,1.384-.211a7.5,7.5,0,0,0,1.5.009C-459.155,1331.741-458.5,1331.587-458.626,1331.95Z" transform="translate(464.916 -1326.562)"/></g><g transform="translate(33.573 26.564)"><path class="c" d="M-418.038,1304.571a.478.478,0,0,1-.485-.4c-.011-.071-.309-1.767-1.761-1.762h-.048c-1.437.039-1.752,1.643-1.764,1.713a.477.477,0,0,1-.558.381.477.477,0,0,1-.382-.556,2.932,2.932,0,0,1,2.748-2.494,2.881,2.881,0,0,1,2.707,2.568.478.478,0,0,1-.4.547A.525.525,0,0,1-418.038,1304.571Z" transform="translate(423.043 -1301.451)"/></g><g transform="translate(15.045 25.814)"><path class="c" d="M-507.592,1301.253a.52.52,0,0,1-.063,0,.477.477,0,0,1-.426-.524,2.88,2.88,0,0,1,2.562-2.712l.073,0a2.94,2.94,0,0,1,2.807,2.342.478.478,0,0,1-.351.577.473.473,0,0,1-.576-.349c-.019-.07-.433-1.654-1.857-1.615l-.047,0c-1.462.076-1.654,1.784-1.663,1.856A.477.477,0,0,1-507.592,1301.253Z" transform="translate(508.083 -1298.011)"/></g></g><g transform="translate(-1106.383 869.744)"><g transform="translate(0 99.834)"><path class="b" d="M-916.768,1335.792s-.564-7.169-4.526-6.281.561,7.171,1.132,8.011S-916.785,1338.113-916.768,1335.792Z" transform="translate(922.906 -1329.114)"/><g transform="translate(2.77)"><path class="c" d="M-908.7,1336.1a1.159,1.159,0,0,1-1.409-.69,1.16,1.16,0,0,1,.658-1.5l15.011-5.866a1.159,1.159,0,0,1,1.5.658,1.162,1.162,0,0,1-.658,1.5l-15.01,5.867C-908.641,1336.079-908.673,1336.089-908.7,1336.1Z" transform="translate(910.194 -1327.959)"/></g></g><g transform="translate(61.388 100.649)"><path class="b" d="M-602.862,1343.709s-.568-7.169,3.485-6.912.569,7.17.138,8.089S-602.482,1346-602.862,1343.709Z" transform="translate(611.225 -1335.682)"/><path class="c" d="M-630.668,1341.533a1.16,1.16,0,0,1-1.078-.224l-8.989-7.557a1.161,1.161,0,0,1-.142-1.635,1.161,1.161,0,0,1,1.635-.141l8.988,7.557a1.161,1.161,0,0,1,.142,1.635A1.159,1.159,0,0,1-630.668,1341.533Z" transform="translate(641.148 -1331.704)"/></g><g transform="translate(10.461 0)"><path class="f" d="M-858.436,887.2c0,1.5,7.76,2.714,17.331,2.714s17.332-1.215,17.332-2.714L-831,911.756c24.5,32.049,19.5,71.941,9.873,74.665a74.109,74.109,0,0,1-20.2,3.039h-.5a74.11,74.11,0,0,1-20.2-3.039c-9.626-2.724-14.627-42.616,9.873-74.665Z" transform="translate(871.025 -883.397)"/><path class="a" d="M-822.824,1061.9a1.308,1.308,0,0,1-.442-.077,1.308,1.308,0,0,1-.788-1.672,55.3,55.3,0,0,1,9.286-16.723,1.307,1.307,0,0,1,1.837-.206,1.307,1.307,0,0,1,.206,1.837,52.82,52.82,0,0,0-8.868,15.976A1.308,1.308,0,0,1-822.824,1061.9Z" transform="translate(835.192 -1005.203)"/><path class="a" d="M-833.743,1158.05a1.264,1.264,0,0,1-.255-.026,1.23,1.23,0,0,1-.244-.074,1.269,1.269,0,0,1-.227-.12,1.418,1.418,0,0,1-.2-.161,1.314,1.314,0,0,1-.383-.924,1.266,1.266,0,0,1,.026-.257,1.372,1.372,0,0,1,.074-.244,1.505,1.505,0,0,1,.12-.227,1.306,1.306,0,0,1,.163-.2,1.3,1.3,0,0,1,.2-.161,1.24,1.24,0,0,1,.227-.122,1.365,1.365,0,0,1,.244-.074,1.327,1.327,0,0,1,.51,0,1.383,1.383,0,0,1,.246.074,1.218,1.218,0,0,1,.224.122,1.2,1.2,0,0,1,.2.161,1.423,1.423,0,0,1,.163.2,1.329,1.329,0,0,1,.12.227,1.212,1.212,0,0,1,.074.244,1.266,1.266,0,0,1,.026.257,1.261,1.261,0,0,1-.026.255,1.206,1.206,0,0,1-.074.244,1.327,1.327,0,0,1-.12.227,1.421,1.421,0,0,1-.163.2A1.317,1.317,0,0,1-833.743,1158.05Z" transform="translate(843.731 -1093.192)"/><g transform="translate(30.968 3.803)"><g transform="translate(16.214)"><path class="g" d="M-658.337,887.438a.492.492,0,0,0,.07-.237Z" transform="translate(658.337 -887.201)"/></g><g transform="translate(0 0.237)"><path class="g" d="M-723.7,912.607l7.16-24.318c-.669,1.21-6.4,2.193-13.868,2.425l1.239,22.3c8.29,8.687,13.6,22.026,13.6,36.986,0,17.019-6.87,31.94-17.184,40.3a75.218,75.218,0,0,0,18.927-3.025C-704.2,984.547-699.2,944.655-723.7,912.607Z" transform="translate(732.758 -888.288)"/></g></g><ellipse class="d" cx="17.332" cy="2.714" rx="17.332" ry="2.714" transform="translate(12.589 1.089)"/><path class="c" d="M-845.195,986.639h-.5a74.708,74.708,0,0,1-20.492-3.08c-2.678-.758-4.934-3.682-6.522-8.458-2.556-7.684-2.892-18.89-.9-29.977a88.642,88.642,0,0,1,16.4-37.517l-6.065-23.677a1.586,1.586,0,0,1-.128-.638,1.09,1.09,0,0,1,.953-1.081,1.091,1.091,0,0,1,1.188.8c.919.7,6.366,1.909,16.28,1.909s15.359-1.208,16.279-1.909l.007-.024a1.09,1.09,0,0,1,1.2-.771,1.09,1.09,0,0,1,.934,1.078,1.57,1.57,0,0,1-.165.716l-6.954,23.619a88.637,88.637,0,0,1,16.388,37.5c1.995,11.087,1.659,22.294-.9,29.977-1.589,4.776-3.844,7.7-6.522,8.458A74.71,74.71,0,0,1-845.195,986.639Zm-15.39-101.022,5.624,21.959a1.09,1.09,0,0,1-.19.932,86.428,86.428,0,0,0-16.31,37c-1.933,10.745-1.627,21.55.82,28.9,1.312,3.943,3.152,6.513,5.048,7.049a72.568,72.568,0,0,0,19.9,3h.5a72.564,72.564,0,0,0,19.9-3c1.9-.536,3.736-3.106,5.048-7.049,2.447-7.354,2.753-18.159.82-28.9a86.434,86.434,0,0,0-16.31-37,1.09,1.09,0,0,1-.18-.969l6.445-21.89a26.518,26.518,0,0,1-3.078.638,84.548,84.548,0,0,1-12.424.808,84.545,84.545,0,0,1-12.424-.808A25.76,25.76,0,0,1-860.584,885.617Z" transform="translate(874.894 -879.487)"/><path class="e" d="M-727.888,874.839v5.387c8.577-.163,15.223-1.306,15.223-2.694S-719.311,875-727.888,874.839Z" transform="translate(759.917 -873.729)"/><path class="c" d="M-803.693,877.351a84.56,84.56,0,0,1-12.424-.808c-4.26-.667-6-1.535-6-3s1.738-2.328,6-3a84.583,84.583,0,0,1,12.424-.808,84.58,84.58,0,0,1,12.424.808c4.26.667,6,1.535,6,3s-1.738,2.328-6,3A84.564,84.564,0,0,1-803.693,877.351Zm-15.721-3.8c1.8.7,7.05,1.625,15.721,1.625s13.924-.924,15.721-1.625c-1.8-.7-7.05-1.625-15.721-1.625S-817.617,872.847-819.414,873.547Zm32.073.348h0Z" transform="translate(833.613 -869.744)"/></g><g transform="translate(21.887 96.881)"><path class="c" d="M-818.516,1328.793a.948.948,0,0,1-.956-.731l-2.952-12.484a.951.951,0,0,1,.707-1.143.952.952,0,0,1,1.143.707l2.95,12.483a.95.95,0,0,1-.705,1.144A.948.948,0,0,1-818.516,1328.793Z" transform="translate(822.449 -1314.41)"/></g><g transform="translate(44.873 98.599)"><path class="c" d="M-715.965,1335.9a.935.935,0,0,1-.42-.083.949.949,0,0,1-.479-1.255l5.24-11.709a.949.949,0,0,1,1.255-.479.95.95,0,0,1,.48,1.255l-5.241,11.709A.947.947,0,0,1-715.965,1335.9Z" transform="translate(716.948 -1322.292)"/></g><path class="b" d="M-725.4,1377.988s-3.431,1.238-2.766,3.41,1.938.358,1.938.358-.466,2.048,2.056,1.773,4.1-1.829,2.2-3.58S-723.986,1378.089-725.4,1377.988Z" transform="translate(770.662 -1267.254)"/><path class="b" d="M-819.49,1376.134s-.97-1.6-3.441-.272c-2.726,1.462-3.839,3.293-1.684,4.317s3.781-1.491,3.781-1.491.292,1.192,1.3.922S-818.427,1377.354-819.49,1376.134Z" transform="translate(846.917 -1265.18)"/><g transform="translate(33.42 79.333)"><path class="c" d="M-766.722,1237.746a3.518,3.518,0,0,1-.592-.124,2.944,2.944,0,0,1-2.2-2.907.879.879,0,0,1,.929-.824.9.9,0,0,1,.823.928,1.2,1.2,0,0,0,.957,1.124c.814.25,2.02-.053,2.953-1.64a.87.87,0,0,1,1-.4.878.878,0,0,1,.638.865c-.012.5.842,1.471,1.875,1.688.906.192,1.631-.306,2.118-1.483a.875.875,0,0,1,1.145-.478.879.879,0,0,1,.478,1.145c-.805,1.956-2.331,2.913-4.1,2.533a4.558,4.558,0,0,1-2.63-1.688A4.13,4.13,0,0,1-766.722,1237.746Z" transform="translate(769.515 -1233.868)"/></g><path class="j" d="M-679.043,1278.065c1.25-.034,2.252-.641,2.234-1.35s-1.054-1.258-2.3-1.224-2.251.639-2.231,1.348S-680.292,1278.1-679.043,1278.065Z" transform="translate(733.975 -1187.088)"/><path class="j" d="M-816.711,1268.192c1.248-.034,2.25-.639,2.23-1.349s-1.053-1.259-2.3-1.225-2.251.64-2.232,1.348S-817.961,1268.227-816.711,1268.192Z" transform="translate(841.65 -1179.366)"/><g transform="translate(50.516 78.363)"><path class="c" d="M-690.287,1229.413a.785.785,0,0,1,.794.66c.018.116.505,2.894,2.884,2.887h.078c2.355-.065,2.87-2.692,2.891-2.806a.782.782,0,0,1,.913-.625.781.781,0,0,1,.625.911c-.263,1.409-1.541,4.071-4.5,4.085-2.98.009-4.2-2.748-4.435-4.207a.782.782,0,0,1,.65-.9A.778.778,0,0,1-690.287,1229.413Z" transform="translate(691.048 -1229.413)"/></g><g transform="translate(20.162 76.931)"><path class="c" d="M-822.228,1222.842a.814.814,0,0,1,.1,0,.781.781,0,0,1,.7.858c-.149,1.469-1.222,4.288-4.2,4.443l-.12,0c-2.877.078-4.264-2.464-4.6-3.836a.783.783,0,0,1,.574-.946.776.776,0,0,1,.944.573c.031.114.709,2.709,3.041,2.646l.077,0c2.395-.124,2.71-2.922,2.724-3.041A.782.782,0,0,1-822.228,1222.842Z" transform="translate(830.366 -1222.842)"/></g></g></g></g></svg>