<svg xmlns="http://www.w3.org/2000/svg" width="114.54" height="107.913" viewBox="0 0 114.54 107.913"><defs><style>.a{fill:#f7f8f9;}.b{fill:#e0cce3;}.c{fill:#fab9aa;}.d{fill:#fff;}.e,.h{fill:#f3a1a1;}.f,.g{fill:#1a1818;}.g,.h,.i{fill-rule:evenodd;}.i{fill:#e94153;}</style></defs><g transform="translate(-0.07 -0.379) rotate(3)"><ellipse class="a" cx="49.856" cy="12.682" rx="49.856" ry="12.682" transform="translate(9.801 2.565)"/><path class="b" d="M-997.134,1195.514v23.542c18.33-1.875,31.271-6.438,31.271-11.771S-978.8,1197.389-997.134,1195.514Z" transform="translate(1075.375 -1192.038)"/><path class="c" d="M-1030.859,1218.464c0,7-22.321,12.682-49.856,12.682s-49.856-5.678-49.856-12.682c0,45.954,15.794,83.433,49.856,83.433C-1047.8,1301.9-1030.859,1266.933-1030.859,1218.464Z" transform="translate(1140.372 -1203.217)"/><path class="d" d="M-1110.4,1265.591a1.539,1.539,0,0,1-1.512-1.266c-.687-3.82-1.241-7.835-1.645-11.934a1.538,1.538,0,0,1,1.38-1.682,1.535,1.535,0,0,1,1.682,1.38c.4,4.019.939,7.952,1.612,11.691a1.538,1.538,0,0,1-1.242,1.787A1.479,1.479,0,0,1-1110.4,1265.591Z" transform="translate(1132.086 -1218.919)"/><path class="d" d="M-1106.881,1286.628a1.463,1.463,0,0,1-.3-.031,1.813,1.813,0,0,1-.292-.088,1.628,1.628,0,0,1-.262-.143,1.4,1.4,0,0,1-.236-.189,1.548,1.548,0,0,1-.451-1.087,1.533,1.533,0,0,1,.031-.3,1.919,1.919,0,0,1,.087-.288,1.927,1.927,0,0,1,.144-.266,1.609,1.609,0,0,1,.19-.231,1.481,1.481,0,0,1,.236-.195,1.642,1.642,0,0,1,.262-.138,1.457,1.457,0,0,1,.292-.088,1.54,1.54,0,0,1,1.385.421,1.663,1.663,0,0,1,.195.231,1.918,1.918,0,0,1,.139.266,1.481,1.481,0,0,1,.087.288,1.5,1.5,0,0,1,.031.3,1.548,1.548,0,0,1-.451,1.087A1.549,1.549,0,0,1-1106.881,1286.628Z" transform="translate(1129.582 -1234.921)"/><g transform="translate(55.565 15.415)"><path class="e" d="M-1006.652,1228.8c-1.608,41.221-13.345,70.624-34.694,73.227,1.334.124,2.7.193,4.092.193,32.914,0,49.856-34.964,49.856-83.432C-987.4,1222.861-994.935,1226.483-1006.652,1228.8Z" transform="translate(1041.345 -1218.791)"/></g><path class="f" d="M-1083.151,1302.026c-16.966,0-30.782-8.93-39.956-25.824-8.155-15.02-12.465-35.827-12.465-60.173a2.564,2.564,0,0,1,2.564-2.564,2.565,2.565,0,0,1,2.565,2.564c0,23.494,4.1,43.456,11.844,57.726,8.338,15.356,20.264,23.142,35.448,23.142,14.924,0,26.712-7.481,35.037-22.237,8.017-14.209,12.255-34.484,12.255-58.631a2.564,2.564,0,0,1,2.564-2.564,2.564,2.564,0,0,1,2.564,2.564c0,25.029-4.466,46.175-12.916,61.152C-1052.817,1293.434-1066.477,1302.026-1083.151,1302.026Z" transform="translate(1142.807 -1200.782)"/><path class="f" d="M-1083.151,1219.231c-25.247,0-52.421-4.771-52.421-15.246s27.173-15.247,52.421-15.247,52.42,4.772,52.42,15.247S-1057.9,1219.231-1083.151,1219.231Zm0-25.364c-13.11,0-25.406,1.291-34.622,3.635-10.393,2.644-12.669,5.576-12.669,6.483s2.276,3.838,12.669,6.482c9.217,2.344,21.512,3.635,34.622,3.635s25.405-1.291,34.621-3.635c10.394-2.645,12.67-5.576,12.67-6.482s-2.277-3.839-12.67-6.483C-1057.745,1195.158-1070.041,1193.866-1083.151,1193.866Z" transform="translate(1142.807 -1188.737)"/><g transform="translate(2.96 83.141) rotate(-11)"><g transform="translate(3.14 0)"><path class="f" d="M17.54,0a1.172,1.172,0,0,0-.124,0A23.451,23.451,0,0,0,.164,11.116,1.143,1.143,0,0,0,2.123,12.3,21.423,21.423,0,0,1,17.584,2.283,1.143,1.143,0,0,0,17.54,0Z"/></g><path class="g" d="M1.7,6.911s-2.383-1.36-1.5-3.19S3.552-1.645,6.828.877s2.761,4.208.943,4.616S5.793,4.455,5.793,4.455,4.6,8.287,1.7,6.911Z" transform="translate(0 10.532)"/></g><g transform="translate(94.584 60.969)"><g transform="translate(0 5.328)"><path class="f" d="M1.238,14.622a1.2,1.2,0,0,1-.213-2.382A22.558,22.558,0,0,0,16.455.653a1.2,1.2,0,1,1,2.132,1.09A24.565,24.565,0,0,1,1.369,14.611,1.161,1.161,0,0,1,1.238,14.622Z"/></g><path class="g" d="M7.652.23s2.588,1.248,1.8,3.225S6.336,9.3,2.729,6.908s-3.191-4.2-1.323-4.756,2.144.942,2.144.942S4.524-1,7.652.23Z" transform="translate(13.775)"/></g><g transform="translate(30.184 56.732)"><path class="h" d="M-1032.777,1354.057a5.194,5.194,0,0,1-4.77,2.552c-3.483-.047-5.872-2.233-2.9-2.145A72.967,72.967,0,0,0-1032.777,1354.057Z" transform="translate(1066.943 -1325.996)"/><g transform="translate(0 0)"><path class="f" d="M-1089.646,1307.266a1.2,1.2,0,0,0,1.194-1.032c.027-.181.693-4.441,4.332-4.5.038,0,.08,0,.118,0,3.6.031,4.463,4.032,4.5,4.2a1.185,1.185,0,0,0,1.407.933,1.192,1.192,0,0,0,.93-1.411c-.44-2.146-2.468-6.177-7-6.117-4.553.069-6.346,4.318-6.655,6.552a1.2,1.2,0,0,0,1.015,1.354C-1089.748,1307.256-1089.7,1307.263-1089.646,1307.266Z" transform="translate(1090.83 -1299.347)"/></g><path class="i" d="M-1083.852,1329.155c-1.528-.016-2.775-.739-2.768-1.613s1.265-1.566,2.8-1.552,2.776.734,2.766,1.607S-1082.316,1329.169-1083.852,1329.155Z" transform="translate(1088.779 -1312.324)"/><path class="i" d="M-994.066,1329.966c-1.528-.016-2.774-.74-2.77-1.609s1.268-1.565,2.8-1.553,2.776.735,2.77,1.6S-992.53,1329.979-994.066,1329.966Z" transform="translate(1045.046 -1312.721)"/><g transform="translate(41.976 0.375)"><path class="f" d="M-996.51,1308.1l.158-.007a1.2,1.2,0,0,0,1.042-1.334c-.271-2.24-1.99-6.525-6.545-6.674-.063,0-.122-.006-.18-.006-4.4-.041-6.451,3.89-6.927,6a1.192,1.192,0,0,0,.9,1.426,1.188,1.188,0,0,0,1.432-.9c.042-.169,1.008-4.159,4.572-4.125a.938.938,0,0,1,.122.006c3.666.117,4.221,4.384,4.248,4.568A1.194,1.194,0,0,0-996.51,1308.1Z" transform="translate(1008.99 -1300.077)"/></g><g transform="translate(20.789 9.791)"><path class="f" d="M-996.51,1308.1l.158-.007a1.2,1.2,0,0,0,1.042-1.334c-.271-2.24-1.99-6.525-6.545-6.674-.063,0-.122-.006-.18-.006-4.4-.041-6.451,3.89-6.927,6a1.192,1.192,0,0,0,.9,1.426,1.188,1.188,0,0,0,1.432-.9c.042-.169,1.008-4.159,4.572-4.125a.938.938,0,0,1,.122.006c3.666.117,4.221,4.384,4.248,4.568A1.194,1.194,0,0,0-996.51,1308.1Z" transform="translate(1008.99 -1300.077)"/></g></g><g transform="translate(18.526 92.719)"><path class="g" d="M-916.707,1335.856s-.569-7.24-4.572-6.343.567,7.243,1.143,8.091S-916.724,1338.2-916.707,1335.856Z" transform="translate(922.906 -1329.11)"/><g transform="translate(2.798 0)"><path class="f" d="M-908.689,1336.18a1.17,1.17,0,0,1-1.423-.7,1.172,1.172,0,0,1,.664-1.518l15.161-5.925a1.171,1.171,0,0,1,1.518.664,1.173,1.173,0,0,1-.665,1.519l-15.161,5.925C-908.626,1336.16-908.658,1336.171-908.689,1336.18Z" transform="translate(910.194 -1327.959)"/></g></g><g transform="translate(80.529 93.543)"><path class="g" d="M-602.861,1343.778s-.573-7.24,3.52-6.981.575,7.242.139,8.17S-602.478,1346.092-602.861,1343.778Z" transform="translate(611.308 -1335.671)"/><g transform="translate(0 0)"><path class="f" d="M-630.563,1341.631a1.171,1.171,0,0,1-1.089-.226l-9.079-7.633a1.172,1.172,0,0,1-.143-1.652,1.173,1.173,0,0,1,1.652-.142l9.078,7.632a1.173,1.173,0,0,1,.144,1.652A1.171,1.171,0,0,1-630.563,1341.631Z" transform="translate(641.148 -1331.704)"/></g></g></g></svg>