<?xml version="1.0" encoding="utf-8"?>
<!-- Generator: Adobe Illustrator 24.2.3, SVG Export Plug-In . SVG Version: 6.00 Build 0)  -->
<svg version="1.1" id="Layer_1" xmlns="http://www.w3.org/2000/svg" xmlns:xlink="http://www.w3.org/1999/xlink" x="0px" y="0px"
	 viewBox="0 0 1920 286.1" style="enable-background:new 0 0 1920 286.1;" xml:space="preserve">
<style type="text/css">
	.st0{fill-rule:evenodd;clip-rule:evenodd;fill:#8FE9F6;}
	.st1{fill-rule:evenodd;clip-rule:evenodd;fill:#A4F3FC;}
	.st2{fill-rule:evenodd;clip-rule:evenodd;fill:#B9F9FE;}
</style>
<path id="Path_1_1_" class="st0" d="M960.5,15.6v270.2H0V16.4c40.6,0,59.6,57.2,108,57.2c55.6,0,150-60,205.5-60s72.3,60,127.9,60
	s150-60,205.5-60s72.4,60,127.9,60C824.3,73.5,904.3,15.6,960.5,15.6z"/>
<path id="Path_1-2_1_" class="st0" d="M960.5,15.6v270.2H1920V16.4c-41.4,0-59.6,57.2-107.9,57.2c-55.5,0-149.8-60-205.3-60
	s-72.3,60-127.8,60c-55.5,0-149.8-60-205.3-60c-55.5,0-72.3,60-127.8,60C1096.6,73.5,1017.5,15.6,960.5,15.6z"/>
<path id="Path_2_1_" class="st1" d="M960.5,97.1v189H0V97.8c40.6,0,59.6,57.2,108,57.2c55.6,0,150-60,205.5-60s72.3,60,127.9,60
	s150-60,205.5-60s72.4,60,127.9,60C824.3,155,905.3,97.1,960.5,97.1z"/>
<path id="Path_2-2_1_" class="st1" d="M960.5,97.1v189H1920V97.8c-40.5,0-59.6,57.2-107.9,57.2c-55.5,0-149.8-60-205.3-60
	s-72.3,60-127.8,60c-55.5,0-149.8-60-205.3-60c-55.5,0-72.3,60-127.8,60C1096.6,155,1016.8,97.1,960.5,97.1z"/>
<path id="Path_3_1_" class="st2" d="M960.5,174.7v111.2H0V173.9c56.1,0,136.2,57.9,185.6,57.9c55.6,0,72.4-60,127.9-60
	s150,60,205.5,60s72.3-60,127.9-60s150,60,205.5,60C900.9,231.8,919.2,174.7,960.5,174.7z"/>
<path id="Path_3-2_1_" class="st2" d="M960.5,174.7v111.2H1920V173.9c-56,0-136.1,57.9-185.4,57.9c-55.5,0-72.3-60-127.8-60
	c-55.5,0-149.8,60-205.3,60c-55.5,0-72.3-60-127.8-60s-149.8,60-205.3,60C1020.1,231.8,1001.3,174.7,960.5,174.7z"/>
</svg>
